<svg xmlns="http://www.w3.org/2000/svg" viewBox="0 0 120 48" fill="none" aria-hidden="true">
  <!-- H -->
  <path fill="#0f172a" d="M8 8h6v14h4V8h6v32h-6V26h-4v14H8z"/>
  <!-- Stylized A: light blue wave (behind) -->
  <path fill="#7dd3fc" d="M38 36c2-4 4-10 4-16 0-4-.5-8-1.5-11L44 8h8l4 14c1 3 1.5 6 1.5 10 0 6 2 12 4 16l-4 2-2-6h-8l-2 6z" opacity="0.95"/>
  <!-- Stylized A: orange wave (front, crossbar) -->
  <path fill="#f59e0b" d="M52 20c0-2 .5-4 1-6l-3-6h8l3 6c.5 2 1 4 1 6v16h-4l-1-4h-4zm4 8h4l-2-8-2 8z"/>
  <!-- P -->
  <path fill="#0f172a" d="M72 8h10c6 0 10 4 10 10s-3 8-8 9l6 15h-6l-6-14h-4v14h-6zM78 18h4c2 0 4-1.5 4-4s-2-4-4-4h-4z"/>
</svg>
